<svg id="Capa_1" data-name="Capa 1" xmlns="http://www.w3.org/2000/svg" viewBox="0 0 67.46 67.48"><defs><style>.cls-1{fill:#fff;}</style></defs><path class="cls-1" d="M16.18,35.5a3.34,3.34,0,0,0-.33,5c.77.81,1.63,1.54,2.5,2.34l-.85.94a1.12,1.12,0,0,0,.32,1.92c.6.32,1.24.57,1.86.84,1.24.54,2.49,1.06,3.73,1.61a1.87,1.87,0,0,1,.53.45c1,1,2,2.07,3,3a3.3,3.3,0,0,0,4.93-.38Z"/><path class="cls-1" d="M10.41,63.21a2.19,2.19,0,0,1,.8-1.42c.25-.2.47-.42.7-.63a1.1,1.1,0,0,0-.27-1.95c-1.85-.86-3.7-1.7-5.6-2.42-.44-.17-1.07.14-1.62.23A5.23,5.23,0,0,0,0,62.21a5.31,5.31,0,0,0,4.84,5.25A5.28,5.28,0,0,0,10.41,63.21Zm-7.17,1a2.66,2.66,0,1,1,3.76,0A2.66,2.66,0,0,1,3.24,64.22Z"/><path class="cls-1" d="M15.82,46a3.59,3.59,0,0,0-.71.42c-.35.31-2.29,2.27-2.6,2.62a1.08,1.08,0,0,0,.28,1.83q3,1.42,6.17,2.7A1.43,1.43,0,0,0,20,53.33c.34-.19,2.2-2.14,2.49-2.41.95-.93.81-1.69-.45-2.24-1.71-.77-3.44-1.52-5.16-2.27Z"/><path class="cls-1" d="M10.74,51.18a2.83,2.83,0,0,0-.57.32c-.37.34-2.28,2.28-2.61,2.65-.57.65-.52,1.4.24,1.76,2,.94,4,1.82,6,2.66a1.41,1.41,0,0,0,1-.25c.41-.27,2.32-2.23,2.66-2.59A1,1,0,0,0,17.38,54c-2.07-1-4.19-1.87-6.29-2.79A1.46,1.46,0,0,0,10.74,51.18Z"/><polygon class="cls-1" points="65.12 11.9 28.99 46.52 25.55 43.07 38.37 30.25 40.39 27.07 37.22 29.09 24.39 41.92 20.94 38.47 55.56 2.34 67.46 0 65.12 11.9"/></svg>